<svg version="1.0" xmlns="http://www.w3.org/2000/svg"
 width="512.000000pt" height="512.000000pt" viewBox="0 0 512.000000 512.000000"
 preserveAspectRatio="xMidYMid meet">

<g transform="translate(0.000000,512.000000) scale(0.100000,-0.100000)"
fill="#9EA5AE" stroke="none">
<path d="M2364 5110 c-332 -35 -610 -163 -824 -379 -199 -201 -326 -453 -390
-770 l-26 -135 -85 -18 c-439 -94 -738 -365 -839 -758 -62 -241 -48 -557 35
-775 89 -237 256 -416 500 -535 213 -105 406 -143 471 -94 71 53 92 130 55
203 -27 53 -65 75 -160 96 -315 70 -522 259 -593 541 -31 124 -31 361 1 479
36 137 83 219 180 316 142 140 311 213 562 239 73 7 97 14 125 35 49 37 55 54
70 197 53 507 293 847 696 984 135 46 222 58 408 59 188 0 273 -11 405 -52
420 -132 678 -499 721 -1026 11 -144 51 -185 193 -198 138 -13 255 -44 366
-98 202 -99 319 -241 376 -456 31 -115 31 -364 0 -480 -66 -248 -228 -422
-468 -506 -116 -40 -185 -50 -393 -55 -113 -3 -217 -10 -233 -16 -63 -24 -105
-112 -86 -181 14 -51 63 -104 107 -117 47 -13 288 -13 412 0 266 28 515 138
689 305 142 137 226 278 275 466 112 423 12 864 -255 1131 -155 154 -365 257
-641 313 -23 4 -28 11 -33 53 -20 150 -88 369 -160 513 -86 172 -246 365 -385
466 -283 205 -670 296 -1076 253z"/>
<path d="M2763 3825 c-85 -23 -153 -63 -219 -129 -34 -34 -73 -85 -88 -114
-54 -107 -56 -127 -56 -639 l0 -473 -51 25 c-71 36 -190 65 -268 65 -351 -1
-641 -291 -641 -640 0 -348 292 -640 640 -640 237 0 465 141 569 350 69 141
71 158 71 738 l0 512 179 0 c210 0 262 8 357 55 133 65 233 204 257 355 37
239 -120 473 -360 535 -75 20 -317 19 -390 0z m371 -339 c90 -68 86 -190 -8
-260 -25 -19 -44 -21 -217 -24 l-189 -3 0 95 c0 102 9 137 43 175 41 44 73 51
208 49 121 -3 127 -4 163 -32z m-903 -1287 c67 -36 98 -68 137 -143 22 -43 26
-64 26 -136 0 -73 -4 -92 -27 -137 -34 -66 -84 -116 -150 -150 -45 -23 -64
-27 -137 -27 -72 0 -93 4 -136 26 -75 40 -107 70 -145 140 -31 58 -34 70 -33
148 0 72 4 93 26 136 38 73 69 106 129 139 71 38 102 45 182 40 51 -3 81 -11
128 -36z"/>
<path d="M1695 946 c-84 -37 -119 -148 -71 -230 6 -10 204 -173 440 -362 310
-249 438 -345 462 -350 77 -14 86 -8 527 345 232 185 427 344 433 352 22 28
36 89 29 130 -9 54 -67 115 -118 124 -78 15 -88 8 -467 -295 -200 -160 -365
-290 -368 -290 -2 0 -160 125 -351 277 -190 153 -362 285 -381 295 -40 21 -93
23 -135 4z"/>
</g>
</svg>
